<?xml version="1.0" standalone="no"?>
<svg xmlns="http://www.w3.org/2000/svg" xmlns:xlink="http://www.w3.org/1999/xlink" width="359pt" height="485pt" viewBox="0.00 0.00 358.96 485.00">
<g id="graph0" class="graph" transform="translate(4,481) scale(1)" data-name="G">

<polygon fill="#2e3e56" stroke="transparent" points="-4,4 -4,-481 354.96,-481 354.96,4 -4,4" style=""/>
<g id="clust1" class="cluster" data-name="clusterILendingPool">

<path fill="#445773" stroke="#445773" d="M208.85,-201C208.85,-201 321.15,-201 321.15,-201 327.15,-201 333.15,-207 333.15,-213 333.15,-213 333.15,-320 333.15,-320 333.15,-326 327.15,-332 321.15,-332 321.15,-332 208.85,-332 208.85,-332 202.85,-332 196.85,-326 196.85,-320 196.85,-320 196.85,-213 196.85,-213 196.85,-207 202.85,-201 208.85,-201" style=""/>
<text text-anchor="middle" x="265" y="-315.4" font-family="Times,serif" font-size="14.00" fill="#f0f0f0" style="">ILendingPool  (iface)</text>
</g>
<g id="clust2" class="cluster" data-name="clusterILendingPoolToken">

<path fill="#445773" stroke="#445773" d="M191.05,-8C191.05,-8 338.96,-8 338.96,-8 344.96,-8 350.96,-14 350.96,-20 350.96,-20 350.96,-181 350.96,-181 350.96,-187 344.96,-193 338.96,-193 338.96,-193 191.05,-193 191.05,-193 185.05,-193 179.05,-187 179.05,-181 179.05,-181 179.05,-20 179.05,-20 179.05,-14 185.05,-8 191.05,-8" style=""/>
<text text-anchor="middle" x="265" y="-176.4" font-family="Times,serif" font-size="14.00" fill="#f0f0f0" style="">ILendingPoolToken  (iface)</text>
</g>
<g id="clust3" class="cluster" data-name="clusterLendingPoolExploit">

<path fill="#445773" stroke="#445773" d="M20,-158C20,-158 147.05,-158 147.05,-158 153.05,-158 159.05,-164 159.05,-170 159.05,-170 159.05,-277 159.05,-277 159.05,-283 153.05,-289 147.05,-289 147.05,-289 20,-289 20,-289 14,-289 8,-283 8,-277 8,-277 8,-170 8,-170 8,-164 14,-158 20,-158" style=""/>
<text text-anchor="middle" x="83.53" y="-272.4" font-family="Times,serif" font-size="14.00" fill="#f0f0f0" style="">LendingPoolExploit</text>
</g>
<g id="clust4" class="cluster" data-name="cluster_01">

<polygon fill="#2e3e56" stroke="black" points="10.53,-340 10.53,-469 299.5,-469 299.5,-340 10.53,-340" style=""/>
<text text-anchor="middle" x="155.02" y="-452.4" font-family="Times,serif" font-size="14.00" style="">Legend</text>
</g>
<!-- ILendingPool.token -->
<g id="node1" class="node" pointer-events="visible" data-name="ILendingPool.token">

<ellipse fill="#edad56" stroke="#edad56" stroke-width="3" cx="264.5" cy="-281" rx="32.48" ry="18" style=""/>
<text text-anchor="middle" x="264.5" y="-276.8" font-family="Times,serif" font-size="14.00" style="">token</text>
</g>
<!-- ILendingPool.flashLoan -->
<g id="node2" class="node" pointer-events="visible" data-name="ILendingPool.flashLoan">

<ellipse fill="#edad56" stroke="#edad56" stroke-width="3" cx="264.5" cy="-227" rx="49.8" ry="18" style=""/>
<text text-anchor="middle" x="264.5" y="-222.8" font-family="Times,serif" font-size="14.00" style="">flashLoan</text>
</g>
<!-- ILendingPoolToken.balanceOf -->
<g id="node3" class="node" pointer-events="visible" data-name="ILendingPoolToken.balanceOf">

<ellipse fill="#edad56" stroke="#edad56" stroke-width="3" cx="264.5" cy="-142" rx="50.92" ry="18" style=""/>
<text text-anchor="middle" x="264.5" y="-137.8" font-family="Times,serif" font-size="14.00" style="">balanceOf</text>
</g>
<!-- ILendingPoolToken.approve -->
<g id="node4" class="node" pointer-events="visible" data-name="ILendingPoolToken.approve">

<ellipse fill="#ffbdb9" stroke="#ffbdb9" stroke-width="3" cx="264.5" cy="-88" rx="42.28" ry="18" style=""/>
<text text-anchor="middle" x="264.5" y="-83.8" font-family="Times,serif" font-size="14.00" style="">approve</text>
</g>
<!-- ILendingPoolToken.transferFrom -->
<g id="node5" class="node" pointer-events="visible" data-name="ILendingPoolToken.transferFrom">

<ellipse fill="#edad56" stroke="#edad56" stroke-width="3" cx="264.5" cy="-34" rx="61.41" ry="18" style=""/>
<text text-anchor="middle" x="264.5" y="-29.8" font-family="Times,serif" font-size="14.00" style="">transferFrom</text>
</g>
<!-- LendingPoolExploit.&lt;Constructor&gt; -->
<g id="node6" class="node" pointer-events="visible" data-name="LendingPoolExploit.&lt;Constructor&gt;">

<ellipse fill="#ff9797" stroke="#ff9797" stroke-width="3" cx="83.53" cy="-238" rx="67.55" ry="18" style=""/>
<text text-anchor="middle" x="83.53" y="-233.8" font-family="Times,serif" font-size="14.00" style="">&lt;Constructor&gt;</text>
</g>
<!-- LendingPoolExploit.&lt;Constructor&gt;&#45;&gt;ILendingPool.token -->
<g id="edge1" class="edge" data-name="LendingPoolExploit.&lt;Constructor&gt;-&gt;ILendingPool.token">

<path fill="none" stroke="white" stroke-width="2" d="M134.38,-249.98C162.78,-256.8 197.85,-265.23 224.27,-271.57" style=""/>
<polygon fill="white" stroke="white" stroke-width="2" points="223.76,-275.05 234.3,-273.98 225.4,-268.24 223.76,-275.05" style=""/>
</g>
<!-- LendingPoolExploit.pwn -->
<g id="node7" class="node" pointer-events="visible" data-name="LendingPoolExploit.pwn">

<ellipse fill="#ffbdb9" stroke="#ffbdb9" stroke-width="3" cx="83.53" cy="-184" rx="27.84" ry="18" style=""/>
<text text-anchor="middle" x="83.53" y="-179.8" font-family="Times,serif" font-size="14.00" style="">pwn</text>
</g>
<!-- LendingPoolExploit.pwn&#45;&gt;ILendingPool.flashLoan -->
<g id="edge3" class="edge" data-name="LendingPoolExploit.pwn-&gt;ILendingPool.flashLoan">

<path fill="none" stroke="white" stroke-width="2" d="M109.79,-190.07C136.34,-196.45 178.82,-206.65 212.4,-214.72" style=""/>
<polygon fill="white" stroke="white" stroke-width="2" points="211.97,-218.22 222.51,-217.15 213.61,-211.41 211.97,-218.22" style=""/>
</g>
<!-- LendingPoolExploit.pwn&#45;&gt;ILendingPoolToken.balanceOf -->
<g id="edge2" class="edge" data-name="LendingPoolExploit.pwn-&gt;ILendingPoolToken.balanceOf">

<path fill="none" stroke="white" stroke-width="2" d="M109.79,-178.07C136.16,-171.88 178.26,-162 211.74,-154.15" style=""/>
<polygon fill="white" stroke="white" stroke-width="2" points="212.89,-157.47 221.83,-151.78 211.29,-150.66 212.89,-157.47" style=""/>
</g>
<!-- LendingPoolExploit.pwn&#45;&gt;ILendingPoolToken.transferFrom -->
<g id="edge4" class="edge" data-name="LendingPoolExploit.pwn-&gt;ILendingPoolToken.transferFrom">

<path fill="none" stroke="white" stroke-width="2" d="M93.13,-167.05C107.41,-140.57 138.51,-89.49 179.05,-61 186.64,-55.67 195.33,-51.35 204.18,-47.87" style=""/>
<polygon fill="white" stroke="white" stroke-width="2" points="205.58,-51.09 213.81,-44.41 203.21,-44.5 205.58,-51.09" style=""/>
</g>
<!-- key -->
<g id="node8" class="node" pointer-events="visible" data-name="key">

<polygon fill="#edad56" stroke="transparent" stroke-width="3" points="148.53,-436 18.53,-436 18.53,-348 148.53,-348 148.53,-436" style=""/>
<text text-anchor="start" x="68.16" y="-417.4" font-family="Times,serif" font-size="14.00" style="">Internal Call</text>
<text text-anchor="start" x="64.27" y="-397.4" font-family="Times,serif" font-size="14.00" style="">External Call</text>
<text text-anchor="start" x="41.73" y="-377.4" font-family="Times,serif" font-size="14.00" style="">Defined Contract</text>
<text text-anchor="start" x="28.13" y="-357.4" font-family="Times,serif" font-size="14.00" style="">Undefined Contract</text>
</g>
<!-- key2 -->
<g id="node9" class="node" pointer-events="visible" data-name="key2">

<polygon fill="#edad56" stroke="transparent" stroke-width="3" points="291.5,-436 237.5,-436 237.5,-348 291.5,-348 291.5,-436" style=""/>
<text text-anchor="start" x="254.5" y="-417.4" font-family="Times,serif" font-size="14.00" style="">   </text>
<text text-anchor="start" x="254.5" y="-397.4" font-family="Times,serif" font-size="14.00" style="">   </text>
<polygon fill="#445773" stroke="transparent" points="252.5,-372 252.5,-392 277.5,-392 277.5,-372 252.5,-372" style=""/>
<text text-anchor="start" x="254.5" y="-377.4" font-family="Times,serif" font-size="14.00" style="">   </text>
<polygon fill="none" stroke="#e8726d" points="254.5,-354 254.5,-370 275.5,-370 275.5,-354 254.5,-354" style=""/>
</g>
<!-- key&#45;&gt;key2 -->
<g id="edge5" class="edge" data-name="key-&gt;key2">

<path fill="none" stroke="#1bc6a6" stroke-width="2" d="M141.53,-422C186.87,-422 200.67,-422 241.45,-422" style=""/>
<polygon fill="#1bc6a6" stroke="#1bc6a6" stroke-width="2" points="241.5,-425.5 251.5,-422 241.5,-418.5 241.5,-425.5" style=""/>
</g>
<!-- key&#45;&gt;key2 -->
<g id="edge6" class="edge" data-name="key-&gt;key2">

<path fill="none" stroke="white" stroke-width="2" d="M141.53,-402C186.87,-402 200.67,-402 241.45,-402" style=""/>
<polygon fill="white" stroke="white" stroke-width="2" points="241.5,-405.5 251.5,-402 241.5,-398.5 241.5,-405.5" style=""/>
</g>
</g>
</svg>