<?xml version="1.0" standalone="no"?>
<svg xmlns="http://www.w3.org/2000/svg" xmlns:xlink="http://www.w3.org/1999/xlink" width="473pt" height="616pt" viewBox="0.00 0.00 472.82 616.00">
<g id="graph0" class="graph" transform="translate(4,612) scale(1)" data-name="G">

<polygon fill="#2e3e56" stroke="transparent" points="-4,4 -4,-612 468.82,-612 468.82,4 -4,4" style=""/>
<g id="clust1" class="cluster" data-name="clusterTimeLock">

<path fill="#445773" stroke="#445773" d="M20,-8C20,-8 444.82,-8 444.82,-8 450.82,-8 456.82,-14 456.82,-20 456.82,-20 456.82,-451 456.82,-451 456.82,-457 450.82,-463 444.82,-463 444.82,-463 20,-463 20,-463 14,-463 8,-457 8,-451 8,-451 8,-20 8,-20 8,-14 14,-8 20,-8" style=""/>
<text text-anchor="middle" x="232.41" y="-446.4" font-family="Times,serif" font-size="14.00" fill="#f0f0f0" style="">TimeLock</text>
</g>
<g id="clust2" class="cluster" data-name="cluster_01">

<polygon fill="#2e3e56" stroke="black" points="19.35,-471 19.35,-600 361.76,-600 361.76,-471 19.35,-471" style=""/>
<text text-anchor="middle" x="190.56" y="-583.4" font-family="Times,serif" font-size="14.00" style="">Legend</text>
</g>
<!-- TimeLock.&lt;Constructor&gt; -->
<g id="node1" class="node" pointer-events="visible" data-name="TimeLock.&lt;Constructor&gt;">

<ellipse fill="#ff9797" stroke="#ff9797" stroke-width="3" cx="92.35" cy="-412" rx="67.55" ry="18" style=""/>
<text text-anchor="middle" x="92.35" y="-407.8" font-family="Times,serif" font-size="14.00" style="">&lt;Constructor&gt;</text>
</g>
<!-- TimeLock.onlyOwner -->
<g id="node2" class="node" pointer-events="visible" data-name="TimeLock.onlyOwner">

<polygon fill="#edad56" stroke="#1bc6a6" stroke-width="3" points="151.3,-346.54 151.3,-361.46 116.77,-372 67.94,-372 33.41,-361.46 33.41,-346.54 67.94,-336 116.77,-336 151.3,-346.54" style=""/>
<polygon fill="none" stroke="#1bc6a6" stroke-width="3" points="155.3,-343.58 155.3,-364.42 117.37,-376 67.34,-376 29.41,-364.42 29.41,-343.58 67.34,-332 117.37,-332 155.3,-343.58" style=""/>
<text text-anchor="middle" x="92.35" y="-349.8" font-family="Times,serif" font-size="14.00" style="">onlyOwner</text>
</g>
<!-- TimeLock.NotOwnerError -->
<g id="node8" class="node" pointer-events="visible" data-name="TimeLock.NotOwnerError">

<ellipse fill="#edad56" stroke="#edad56" stroke-width="3" cx="326.76" cy="-412" rx="72.35" ry="18" style=""/>
<text text-anchor="middle" x="326.76" y="-407.8" font-family="Times,serif" font-size="14.00" style="">NotOwnerError</text>
</g>
<!-- TimeLock.onlyOwner&#45;&gt;TimeLock.NotOwnerError -->
<g id="edge1" class="edge" data-name="TimeLock.onlyOwner-&gt;TimeLock.NotOwnerError">

<path fill="none" stroke="#1bc6a6" stroke-width="2" d="M142.82,-368.37C162.07,-373.8 184.36,-379.9 204.71,-385 222.95,-389.57 242.83,-394.16 261.11,-398.23" style=""/>
<polygon fill="#1bc6a6" stroke="#1bc6a6" stroke-width="2" points="260.56,-401.7 271.08,-400.44 262.07,-394.86 260.56,-401.7" style=""/>
</g>
<!-- TimeLock.&lt;Receive Ether&gt; -->
<g id="node3" class="node" pointer-events="visible" data-name="TimeLock.&lt;Receive Ether&gt;">

<ellipse fill="#ffbdb9" stroke="brown" stroke-width="3" cx="92.35" cy="-296" rx="76.21" ry="18" style=""/>
<text text-anchor="middle" x="92.35" y="-291.8" font-family="Times,serif" font-size="14.00" style="">&lt;Receive Ether&gt;</text>
</g>
<!-- TimeLock.getTxId -->
<g id="node4" class="node" pointer-events="visible" data-name="TimeLock.getTxId">

<ellipse fill="#edad56" stroke="#edad56" stroke-width="3" cx="326.76" cy="-250" rx="41.71" ry="18" style=""/>
<text text-anchor="middle" x="326.76" y="-245.8" font-family="Times,serif" font-size="14.00" style="">getTxId</text>
</g>
<!-- TimeLock.queue -->
<g id="node5" class="node" pointer-events="visible" data-name="TimeLock.queue">

<ellipse fill="#ffbdb9" stroke="#ffbdb9" stroke-width="3" cx="92.35" cy="-242" rx="34.19" ry="18" style=""/>
<text text-anchor="middle" x="92.35" y="-237.8" font-family="Times,serif" font-size="14.00" style="">queue</text>
</g>
<!-- TimeLock.queue&#45;&gt;TimeLock.getTxId -->
<g id="edge2" class="edge" data-name="TimeLock.queue-&gt;TimeLock.getTxId">

<path fill="none" stroke="#1bc6a6" stroke-width="2" d="M126.65,-243.15C165.43,-244.48 229.9,-246.7 274.95,-248.25" style=""/>
<polygon fill="#1bc6a6" stroke="#1bc6a6" stroke-width="2" points="274.98,-251.75 285.1,-248.6 275.22,-244.76 274.98,-251.75" style=""/>
</g>
<!-- TimeLock.AlreadyQueuedError -->
<g id="node9" class="node" pointer-events="visible" data-name="TimeLock.AlreadyQueuedError">

<ellipse fill="#edad56" stroke="#edad56" stroke-width="3" cx="326.76" cy="-304" rx="92.59" ry="18" style=""/>
<text text-anchor="middle" x="326.76" y="-299.8" font-family="Times,serif" font-size="14.00" style="">AlreadyQueuedError</text>
</g>
<!-- TimeLock.queue&#45;&gt;TimeLock.AlreadyQueuedError -->
<g id="edge3" class="edge" data-name="TimeLock.queue-&gt;TimeLock.AlreadyQueuedError">

<path fill="none" stroke="#1bc6a6" stroke-width="2" d="M121.53,-251.59C143.93,-259.03 176.13,-269.34 204.71,-277 220.21,-281.16 236.94,-285.18 252.88,-288.8" style=""/>
<polygon fill="#1bc6a6" stroke="#1bc6a6" stroke-width="2" points="252.16,-292.22 262.68,-291 253.69,-285.39 252.16,-292.22" style=""/>
</g>
<!-- TimeLock.TimestampNotInRangeError -->
<g id="node10" class="node" pointer-events="visible" data-name="TimeLock.TimestampNotInRangeError">

<ellipse fill="#edad56" stroke="#edad56" stroke-width="3" cx="326.76" cy="-358" rx="122.12" ry="18" style=""/>
<text text-anchor="middle" x="326.76" y="-353.8" font-family="Times,serif" font-size="14.00" style="">TimestampNotInRangeError</text>
</g>
<!-- TimeLock.queue&#45;&gt;TimeLock.TimestampNotInRangeError -->
<g id="edge4" class="edge" data-name="TimeLock.queue-&gt;TimeLock.TimestampNotInRangeError">

<path fill="none" stroke="#1bc6a6" stroke-width="2" d="M124.82,-248.03C139.4,-252.06 156.21,-258.6 168.71,-269 193.19,-289.39 179,-312.17 204.71,-331 210.74,-335.42 217.36,-339.13 224.3,-342.26" style=""/>
<polygon fill="#1bc6a6" stroke="#1bc6a6" stroke-width="2" points="223.36,-345.65 233.94,-346.16 225.98,-339.16 223.36,-345.65" style=""/>
</g>
<!-- TimeLock.execute -->
<g id="node6" class="node" pointer-events="visible" data-name="TimeLock.execute">

<ellipse fill="#ffbdb9" stroke="brown" stroke-width="3" cx="92.35" cy="-142" rx="40.54" ry="18" style=""/>
<text text-anchor="middle" x="92.35" y="-137.8" font-family="Times,serif" font-size="14.00" style="">execute</text>
</g>
<!-- TimeLock.execute&#45;&gt;TimeLock.getTxId -->
<g id="edge5" class="edge" data-name="TimeLock.execute-&gt;TimeLock.getTxId">

<path fill="none" stroke="#1bc6a6" stroke-width="2" d="M110.81,-158.27C131.59,-176.75 168.1,-206.47 204.71,-223 227.17,-233.14 253.75,-239.62 276.27,-243.67" style=""/>
<polygon fill="#1bc6a6" stroke="#1bc6a6" stroke-width="2" points="275.86,-247.15 286.31,-245.37 277.03,-240.25 275.86,-247.15" style=""/>
</g>
<!-- TimeLock.NotQueuedError -->
<g id="node11" class="node" pointer-events="visible" data-name="TimeLock.NotQueuedError">

<ellipse fill="#edad56" stroke="#edad56" stroke-width="3" cx="326.76" cy="-34" rx="75.86" ry="18" style=""/>
<text text-anchor="middle" x="326.76" y="-29.8" font-family="Times,serif" font-size="14.00" style="">NotQueuedError</text>
</g>
<!-- TimeLock.execute&#45;&gt;TimeLock.NotQueuedError -->
<g id="edge6" class="edge" data-name="TimeLock.execute-&gt;TimeLock.NotQueuedError">

<path fill="none" stroke="#1bc6a6" stroke-width="2" d="M110.81,-125.73C131.59,-107.25 168.1,-77.53 204.71,-61 219.33,-54.39 235.7,-49.35 251.56,-45.51" style=""/>
<polygon fill="#1bc6a6" stroke="#1bc6a6" stroke-width="2" points="252.38,-48.91 261.35,-43.27 250.82,-42.09 252.38,-48.91" style=""/>
</g>
<!-- TimeLock.TimestampNotPassedError -->
<g id="node12" class="node" pointer-events="visible" data-name="TimeLock.TimestampNotPassedError">

<ellipse fill="#edad56" stroke="#edad56" stroke-width="3" cx="326.76" cy="-196" rx="115.76" ry="18" style=""/>
<text text-anchor="middle" x="326.76" y="-191.8" font-family="Times,serif" font-size="14.00" style="">TimestampNotPassedError</text>
</g>
<!-- TimeLock.execute&#45;&gt;TimeLock.TimestampNotPassedError -->
<g id="edge7" class="edge" data-name="TimeLock.execute-&gt;TimeLock.TimestampNotPassedError">

<path fill="none" stroke="#1bc6a6" stroke-width="2" d="M128.42,-150.68C150.33,-156.06 179.13,-163.05 204.71,-169 219.02,-172.33 234.31,-175.81 249.03,-179.11" style=""/>
<polygon fill="#1bc6a6" stroke="#1bc6a6" stroke-width="2" points="248.59,-182.6 259.11,-181.37 250.12,-175.77 248.59,-182.6" style=""/>
</g>
<!-- TimeLock.TimestampExpiredError -->
<g id="node13" class="node" pointer-events="visible" data-name="TimeLock.TimestampExpiredError">

<ellipse fill="#edad56" stroke="#edad56" stroke-width="3" cx="326.76" cy="-88" rx="105.36" ry="18" style=""/>
<text text-anchor="middle" x="326.76" y="-83.8" font-family="Times,serif" font-size="14.00" style="">TimestampExpiredError</text>
</g>
<!-- TimeLock.execute&#45;&gt;TimeLock.TimestampExpiredError -->
<g id="edge8" class="edge" data-name="TimeLock.execute-&gt;TimeLock.TimestampExpiredError">

<path fill="none" stroke="#1bc6a6" stroke-width="2" d="M128.42,-133.32C150.33,-127.94 179.13,-120.95 204.71,-115 219.76,-111.5 235.89,-107.84 251.31,-104.38" style=""/>
<polygon fill="#1bc6a6" stroke="#1bc6a6" stroke-width="2" points="252.32,-107.74 261.32,-102.14 250.79,-100.91 252.32,-107.74" style=""/>
</g>
<!-- TimeLock.TxFailedError -->
<g id="node14" class="node" pointer-events="visible" data-name="TimeLock.TxFailedError">

<ellipse fill="#edad56" stroke="#edad56" stroke-width="3" cx="326.76" cy="-142" rx="66.05" ry="18" style=""/>
<text text-anchor="middle" x="326.76" y="-137.8" font-family="Times,serif" font-size="14.00" style="">TxFailedError</text>
</g>
<!-- TimeLock.execute&#45;&gt;TimeLock.TxFailedError -->
<g id="edge9" class="edge" data-name="TimeLock.execute-&gt;TimeLock.TxFailedError">

<path fill="none" stroke="#1bc6a6" stroke-width="2" d="M133.04,-142C165.06,-142 211.02,-142 250.03,-142" style=""/>
<polygon fill="#1bc6a6" stroke="#1bc6a6" stroke-width="2" points="250.3,-145.5 260.3,-142 250.3,-138.5 250.3,-145.5" style=""/>
</g>
<!-- TimeLock.cancel -->
<g id="node7" class="node" pointer-events="visible" data-name="TimeLock.cancel">

<ellipse fill="#ffbdb9" stroke="#ffbdb9" stroke-width="3" cx="92.35" cy="-34" rx="35.89" ry="18" style=""/>
<text text-anchor="middle" x="92.35" y="-29.8" font-family="Times,serif" font-size="14.00" style="">cancel</text>
</g>
<!-- TimeLock.cancel&#45;&gt;TimeLock.NotQueuedError -->
<g id="edge10" class="edge" data-name="TimeLock.cancel-&gt;TimeLock.NotQueuedError">

<path fill="none" stroke="#1bc6a6" stroke-width="2" d="M128.15,-34C157.79,-34 201.63,-34 240.5,-34" style=""/>
<polygon fill="#1bc6a6" stroke="#1bc6a6" stroke-width="2" points="240.78,-37.5 250.78,-34 240.78,-30.5 240.78,-37.5" style=""/>
</g>
<!-- key -->
<g id="node15" class="node" pointer-events="visible" data-name="key">

<polygon fill="#edad56" stroke="transparent" stroke-width="3" points="157.35,-567 27.35,-567 27.35,-479 157.35,-479 157.35,-567" style=""/>
<text text-anchor="start" x="76.99" y="-548.4" font-family="Times,serif" font-size="14.00" style="">Internal Call</text>
<text text-anchor="start" x="73.1" y="-528.4" font-family="Times,serif" font-size="14.00" style="">External Call</text>
<text text-anchor="start" x="50.56" y="-508.4" font-family="Times,serif" font-size="14.00" style="">Defined Contract</text>
<text text-anchor="start" x="36.95" y="-488.4" font-family="Times,serif" font-size="14.00" style="">Undefined Contract</text>
</g>
<!-- key2 -->
<g id="node16" class="node" pointer-events="visible" data-name="key2">

<polygon fill="#edad56" stroke="transparent" stroke-width="3" points="353.76,-567 299.76,-567 299.76,-479 353.76,-479 353.76,-567" style=""/>
<text text-anchor="start" x="316.76" y="-548.4" font-family="Times,serif" font-size="14.00" style="">   </text>
<text text-anchor="start" x="316.76" y="-528.4" font-family="Times,serif" font-size="14.00" style="">   </text>
<polygon fill="#445773" stroke="transparent" points="314.76,-503 314.76,-523 339.76,-523 339.76,-503 314.76,-503" style=""/>
<text text-anchor="start" x="316.76" y="-508.4" font-family="Times,serif" font-size="14.00" style="">   </text>
<polygon fill="none" stroke="#e8726d" points="316.76,-485 316.76,-501 337.76,-501 337.76,-485 316.76,-485" style=""/>
</g>
<!-- key&#45;&gt;key2 -->
<g id="edge11" class="edge" data-name="key-&gt;key2">

<path fill="none" stroke="#1bc6a6" stroke-width="2" d="M150.35,-553C219.43,-553 239.23,-553 303.5,-553" style=""/>
<polygon fill="#1bc6a6" stroke="#1bc6a6" stroke-width="2" points="303.76,-556.5 313.76,-553 303.76,-549.5 303.76,-556.5" style=""/>
</g>
<!-- key&#45;&gt;key2 -->
<g id="edge12" class="edge" data-name="key-&gt;key2">

<path fill="none" stroke="white" stroke-width="2" d="M150.35,-533C219.43,-533 239.23,-533 303.5,-533" style=""/>
<polygon fill="white" stroke="white" stroke-width="2" points="303.76,-536.5 313.76,-533 303.76,-529.5 303.76,-536.5" style=""/>
</g>
</g>
</svg>